<svg width="238" height="66.99" viewBox="0 0 238 66.99" xmlns="http://www.w3.org/2000/svg"><g id="svgGroup" stroke-linecap="round" fill-rule="evenodd" font-size="9pt" stroke="#00000000" stroke-width="0.25mm" fill="#000000" style="stroke:#00000000;stroke-width:0.25mm;fill:#000000"><path d="M 49.7 51.1 L 41.79 51.1 L 41.79 15.68 L 27.16 42.56 L 22.54 42.56 L 7.84 15.68 L 7.84 51.1 L 0 51.1 L 0 1.4 L 8.4 1.4 L 24.85 31.78 L 41.3 1.4 L 49.7 1.4 L 49.7 51.1 Z M 139.02 11.97 L 132.86 16.1 A 15.552 15.552 0 0 0 131.386 13.555 A 11.658 11.658 0 0 0 129.325 11.34 Q 127.19 9.59 124.705 8.89 A 18.451 18.451 0 0 0 121.037 8.234 A 16.492 16.492 0 0 0 119.84 8.19 A 16.56 16.56 0 0 0 116.38 8.536 A 12.826 12.826 0 0 0 112.98 9.765 Q 110.04 11.34 108.045 13.93 Q 106.05 16.52 105.035 19.74 Q 104.02 22.96 104.02 26.18 Q 104.02 29.75 105.21 33.075 A 19.329 19.329 0 0 0 108.016 38.304 A 18.192 18.192 0 0 0 108.535 38.955 Q 110.67 41.51 113.61 42.98 Q 116.55 44.45 120.05 44.45 A 15.01 15.01 0 0 0 123.264 44.088 A 18.56 18.56 0 0 0 125.02 43.61 Q 127.61 42.77 129.815 40.985 A 11.486 11.486 0 0 0 132.588 37.663 A 14.309 14.309 0 0 0 133.28 36.26 L 139.79 39.97 Q 138.25 43.68 134.995 46.27 Q 131.74 48.86 127.715 50.19 Q 123.69 51.52 119.77 51.52 A 21.686 21.686 0 0 1 113.054 50.501 A 19.777 19.777 0 0 1 110.18 49.315 Q 105.84 47.11 102.69 43.435 Q 99.54 39.76 97.79 35.175 Q 96.04 30.59 96.04 25.9 Q 96.04 21.35 97.65 16.975 Q 99.26 12.6 102.375 8.995 Q 105.49 5.39 109.97 3.255 A 21.867 21.867 0 0 1 116.692 1.328 A 27.421 27.421 0 0 1 120.12 1.12 Q 126.84 1.12 131.74 4.165 A 20.398 20.398 0 0 1 136.723 8.449 A 18.322 18.322 0 0 1 139.02 11.97 Z M 61.18 66.43 L 61.18 59.71 Q 62.23 59.85 63.245 60.025 A 16.346 16.346 0 0 0 63.842 60.117 Q 64.457 60.2 64.89 60.2 Q 66.08 60.2 66.955 59.465 A 3.972 3.972 0 0 0 67.498 58.895 Q 67.997 58.268 68.507 57.253 A 17.423 17.423 0 0 0 68.74 56.77 Q 69.65 54.81 70.98 51.1 L 55.93 14.49 L 63.98 14.49 L 75.18 43.26 L 85.12 14.49 L 92.54 14.49 L 75.95 59.57 Q 75.18 61.6 73.71 63.315 A 10.298 10.298 0 0 1 70.104 65.995 A 11.821 11.821 0 0 1 70.07 66.01 Q 67.9 66.99 64.96 66.99 A 10.264 10.264 0 0 1 64.947 66.99 Q 64.321 66.989 63.657 66.911 A 12.8 12.8 0 0 1 63.21 66.85 A 18.988 18.988 0 0 1 62.279 66.682 Q 61.758 66.574 61.18 66.43 Z M 238 28.77 L 238 51.1 L 230.3 51.1 L 230.3 30.59 A 25.226 25.226 0 0 0 230.172 27.949 Q 229.89 25.28 228.988 23.64 A 6.22 6.22 0 0 0 228.655 23.1 A 5.323 5.323 0 0 0 224.758 20.778 A 7.799 7.799 0 0 0 223.79 20.72 A 9.425 9.425 0 0 0 220.208 21.445 A 11.424 11.424 0 0 0 219.345 21.84 Q 217.14 22.96 215.39 24.885 Q 213.64 26.81 212.87 29.33 L 212.87 51.1 L 205.17 51.1 L 205.17 14.49 L 212.17 14.49 L 212.17 21.84 Q 213.57 19.39 215.845 17.605 Q 218.12 15.82 220.99 14.84 A 18.628 18.628 0 0 1 226.779 13.862 A 21.002 21.002 0 0 1 227.08 13.86 A 14.957 14.957 0 0 1 229.384 14.027 Q 230.612 14.219 231.627 14.63 A 7.904 7.904 0 0 1 232.505 15.05 Q 234.64 16.24 235.865 18.305 A 12.897 12.897 0 0 1 237.185 21.442 A 15.938 15.938 0 0 1 237.545 23.065 A 33.033 33.033 0 0 1 237.972 27.285 A 38.305 38.305 0 0 1 238 28.77 Z M 158.216 51.381 A 21.444 21.444 0 0 0 162.54 51.8 Q 166.81 51.8 170.275 50.295 Q 173.74 48.79 176.225 46.13 Q 178.71 43.47 180.04 40.075 A 18.909 18.909 0 0 0 180.201 39.649 A 19.769 19.769 0 0 0 181.37 32.83 Q 181.37 28.98 180.04 25.55 Q 178.71 22.12 176.225 19.495 Q 173.74 16.87 170.275 15.365 A 17.472 17.472 0 0 0 167.089 14.336 A 20.968 20.968 0 0 0 162.54 13.86 Q 158.27 13.86 154.805 15.365 Q 151.34 16.87 148.855 19.495 Q 146.37 22.12 145.04 25.55 Q 143.71 28.98 143.71 32.83 A 22.222 22.222 0 0 0 143.71 32.95 A 19.653 19.653 0 0 0 145.04 40.075 Q 146.37 43.47 148.855 46.13 Q 151.34 48.79 154.77 50.295 A 17.14 17.14 0 0 0 158.216 51.381 Z M 195.93 51.1 L 188.23 51.1 L 188.23 14.49 L 195.93 14.49 L 195.93 51.1 Z M 151.62 32.9 A 14.323 14.323 0 0 0 152.125 36.761 A 12.385 12.385 0 0 0 153.09 39.2 A 12.129 12.129 0 0 0 155.433 42.355 A 11.049 11.049 0 0 0 157.01 43.61 Q 159.46 45.22 162.54 45.22 Q 165.55 45.22 168.035 43.575 Q 170.52 41.93 171.99 39.095 A 13.242 13.242 0 0 0 173.447 33.468 A 15.63 15.63 0 0 0 173.46 32.83 A 14.323 14.323 0 0 0 172.955 28.969 A 12.385 12.385 0 0 0 171.99 26.53 A 12.051 12.051 0 0 0 169.214 22.98 A 11.439 11.439 0 0 0 168.035 22.085 Q 165.55 20.44 162.54 20.44 Q 159.46 20.44 157.01 22.12 A 12.248 12.248 0 0 0 153.136 26.479 A 14.21 14.21 0 0 0 153.09 26.565 A 12.545 12.545 0 0 0 151.736 30.956 A 15.838 15.838 0 0 0 151.62 32.9 Z M 195.93 8.47 L 188.23 8.47 L 188.23 0 L 195.93 0 L 195.93 8.47 Z" vector-effect="non-scaling-stroke"/></g></svg>